# xmcd CD database file
#
# Track frame offsets:
#	150
#	20869
#	39794
#	68225
#	93523
#	118377
#	136507
#	157874
#	171156
#	197891
#	220365
#	242145
#	267941
#
# Disc length: 4121 seconds
#
# Revision: 0
# Processed by: cddbd v1.5.1PL0 Copyright (c) Steve Scherf et al.
# Submitted via: CDex 1.51
#
DISCID=b810170d
DTITLE=Palimpsest - Palimpsest
DYEAR=2004
DGENRE=Jazz
TTITLE0=lullaby of birdland
TTITLE1=america
TTITLE2=not me, not you
TTITLE3=how insensitive
TTITLE4=beauty of all things
TTITLE5=agua de beber
TTITLE6=i'll bet you thought i'd never find you
TTITLE7=junk
TTITLE8=black is the colour
TTITLE9=she smiles
TTITLE10=ashes to ashes
TTITLE11=exit music
TTITLE12=i'll bet you thought i'd never find you
EXTD=YEAR: 2004
EXTT0=
EXTT1=
EXTT2=
EXTT3=
EXTT4=
EXTT5=
EXTT6=
EXTT7=
EXTT8=
EXTT9=
EXTT10=
EXTT11=
EXTT12=
PLAYORDER=
